name ./resultDataOpenSim/trcMotMarkerGrf/sub10/grf-15-06.mot
datacolumns 19
datarows 25
range 1.03600000 1.13200000
endheader

                time	     ground_force_vx	     ground_force_vy	     ground_force_vz	     ground_force_px	     ground_force_py	     ground_force_pz	   l_ground_force_vx	   l_ground_force_vy	   l_ground_force_vz	   l_ground_force_px	   l_ground_force_py	   l_ground_force_pz	     ground_torque_x	     ground_torque_y	     ground_torque_z	   l_ground_torque_x	   l_ground_torque_y	   l_ground_torque_z	
          1.03600000	          0.00000000	          0.00000000	          0.00000000	          0.00000000	          0.00000000	          0.00000000	         35.27331485	        845.35979382	         14.09220963	          0.07530546	         -0.10000100	         -0.15437538	          0.00000000	          0.00000000	          0.00000000	          0.00000000	         -6.47006493	          0.00000000	
          1.04000000	          0.00000000	          0.00000000	          0.00000000	          0.00000000	          0.00000000	          0.00000000	         41.67242580	        853.45006512	         10.93236809	          0.07533668	         -0.10000100	         -0.15376652	          0.00000000	          0.00000000	          0.00000000	          0.00000000	         -6.57945468	          0.00000000	
          1.04400000	          0.00000000	          0.00000000	          0.00000000	          0.00000000	          0.00000000	          0.00000000	         48.04548565	        861.19523268	          8.07265292	          0.07539082	         -0.10000100	         -0.15325436	          0.00000000	          0.00000000	          0.00000000	          0.00000000	         -6.65471734	          0.00000000	
          1.04800000	          0.00000000	          0.00000000	          0.00000000	          0.00000000	          0.00000000	          0.00000000	         54.40486767	        868.38289042	          5.52633990	          0.07549998	         -0.10000100	         -0.15283956	          0.00000000	          0.00000000	          0.00000000	          0.00000000	         -6.69895169	          0.00000000	
          1.05200000	          0.00000000	          0.00000000	          0.00000000	          0.00000000	          0.00000000	          0.00000000	         60.80157572	        874.92469169	          3.28340638	          0.07567102	         -0.10000100	         -0.15250347	          0.00000000	          0.00000000	          0.00000000	          0.00000000	         -6.71549026	          0.00000000	
          1.05600000	          0.00000000	          0.00000000	          0.00000000	          0.00000000	          0.00000000	          0.00000000	         67.29555359	        880.80609193	          1.33164998	          0.07588423	         -0.10000100	         -0.15223084	          0.00000000	          0.00000000	          0.00000000	          0.00000000	         -6.70761678	          0.00000000	
          1.06000000	          0.00000000	          0.00000000	          0.00000000	          0.00000000	          0.00000000	          0.00000000	         73.95930736	        886.03293237	         -0.33870489	          0.07610381	         -0.10000100	         -0.15201769	          0.00000000	          0.00000000	          0.00000000	          0.00000000	         -6.67832557	          0.00000000	
          1.06400000	          0.00000000	          0.00000000	          0.00000000	          0.00000000	          0.00000000	          0.00000000	         80.88736298	        890.60362319	         -1.76242829	          0.07630282	         -0.10000100	         -0.15185784	          0.00000000	          0.00000000	          0.00000000	          0.00000000	         -6.63023028	          0.00000000	
          1.06800000	          0.00000000	          0.00000000	          0.00000000	          0.00000000	          0.00000000	          0.00000000	         88.17255234	        894.48591216	         -3.01788063	          0.07647320	         -0.10000100	         -0.15173424	          0.00000000	          0.00000000	          0.00000000	          0.00000000	         -6.56555475	          0.00000000	
          1.07200000	          0.00000000	          0.00000000	          0.00000000	          0.00000000	          0.00000000	          0.00000000	         95.85849454	        897.58905668	         -4.20242383	          0.07661402	         -0.10000100	         -0.15162779	          0.00000000	          0.00000000	          0.00000000	          0.00000000	         -6.48604914	          0.00000000	
          1.07600000	          0.00000000	          0.00000000	          0.00000000	          0.00000000	          0.00000000	          0.00000000	        103.91806409	        899.76971436	         -5.39233696	          0.07672207	         -0.10000100	         -0.15153014	          0.00000000	          0.00000000	          0.00000000	          0.00000000	         -6.39280792	          0.00000000	
          1.08000000	          0.00000000	          0.00000000	          0.00000000	          0.00000000	          0.00000000	          0.00000000	        112.26404403	        900.87819919	         -6.63468591	          0.07680158	         -0.10000100	         -0.15143834	          0.00000000	          0.00000000	          0.00000000	          0.00000000	         -6.28614151	          0.00000000	
          1.08400000	          0.00000000	          0.00000000	          0.00000000	          0.00000000	          0.00000000	          0.00000000	        120.76519098	        900.77905696	         -7.97020899	          0.07686953	         -0.10000100	         -0.15134239	          0.00000000	          0.00000000	          0.00000000	          0.00000000	         -6.16562468	          0.00000000	
          1.08800000	          0.00000000	          0.00000000	          0.00000000	          0.00000000	          0.00000000	          0.00000000	        129.26293044	        899.31977369	         -9.43840792	          0.07694665	         -0.10000100	         -0.15122271	          0.00000000	          0.00000000	          0.00000000	          0.00000000	         -6.03028009	          0.00000000	
          1.09200000	          0.00000000	          0.00000000	          0.00000000	          0.00000000	          0.00000000	          0.00000000	        137.58957512	        896.29493989	        -11.05558156	          0.07704721	         -0.10000100	         -0.15106459	          0.00000000	          0.00000000	          0.00000000	          0.00000000	         -5.87881760	          0.00000000	
          1.09600000	          0.00000000	          0.00000000	          0.00000000	          0.00000000	          0.00000000	          0.00000000	        145.59190646	        891.44033885	        -12.81429984	          0.07716566	         -0.10000100	         -0.15086666	          0.00000000	          0.00000000	          0.00000000	          0.00000000	         -5.70994069	          0.00000000	
          1.10000000	          0.00000000	          0.00000000	          0.00000000	          0.00000000	          0.00000000	          0.00000000	        153.14723453	        884.46513659	        -14.69991903	          0.07731191	         -0.10000100	         -0.15062582	          0.00000000	          0.00000000	          0.00000000	          0.00000000	         -5.52271351	          0.00000000	
          1.10400000	          0.00000000	          0.00000000	          0.00000000	          0.00000000	          0.00000000	          0.00000000	        160.15246572	        875.11706724	        -16.68683294	          0.07750936	         -0.10000004	         -0.15033698	          0.00000000	          0.00000000	          0.00000000	          0.00000000	         -5.31686448	          0.00000000	
          1.10800000	          0.00000000	          0.00000000	          0.00000000	          0.00000000	          0.00000000	          0.00000000	        166.52193125	        863.24920103	        -18.74011841	          0.07776250	         -0.10000000	         -0.15001108	          0.00000000	          0.00000000	          0.00000000	          0.00000000	         -5.09289827	          0.00000000	
          1.11200000	          0.00000000	          0.00000000	          0.00000000	          0.00000000	          0.00000000	          0.00000000	        172.21741889	        848.82847978	        -20.83057981	          0.07807317	         -0.10000000	         -0.14965727	          0.00000000	          0.00000000	          0.00000000	          0.00000000	         -4.85200013	          0.00000000	
          1.11600000	          0.00000000	          0.00000000	          0.00000000	          0.00000000	          0.00000000	          0.00000000	        177.26824053	        831.85073028	        -22.92991844	          0.07844862	         -0.09999916	         -0.14928439	          0.00000000	          0.00000000	          0.00000000	          0.00000000	         -4.59580822	          0.00000000	
          1.12000000	          0.00000000	          0.00000000	          0.00000000	          0.00000000	          0.00000000	          0.00000000	        181.75856381	        812.27008967	        -24.99799494	          0.07889694	         -0.09999900	         -0.14889551	          0.00000000	          0.00000000	          0.00000000	          0.00000000	         -4.32618436	          0.00000000	
          1.12400000	          0.00000000	          0.00000000	          0.00000000	          0.00000000	          0.00000000	          0.00000000	        185.79035240	        790.05799697	        -26.97973837	          0.07939375	         -0.09999900	         -0.14848355	          0.00000000	          0.00000000	          0.00000000	          0.00000000	         -4.04514619	          0.00000000	
          1.12800000	          0.00000000	          0.00000000	          0.00000000	          0.00000000	          0.00000000	          0.00000000	        189.42417260	        765.28101853	        -28.80176240	          0.07990639	         -0.09999828	         -0.14803937	          0.00000000	          0.00000000	          0.00000000	          0.00000000	         -3.75508037	          0.00000000	
          1.13200000	          0.00000000	          0.00000000	          0.00000000	          0.00000000	          0.00000000	          0.00000000	        192.61797940	        738.07407288	        -30.37848048	          0.08040210	         -0.09999800	         -0.14756721	          0.00000000	          0.00000000	          0.00000000	          0.00000000	         -3.45920338	          0.00000000	
